<?xml version="1.0" encoding="utf-8"?>
<!-- Generator: Adobe Illustrator 26.0.1, SVG Export Plug-In . SVG Version: 6.00 Build 0)  -->
<svg version="1.1" id="Layer_1" xmlns="http://www.w3.org/2000/svg" xmlns:xlink="http://www.w3.org/1999/xlink" x="0px" y="0px"
	 viewBox="0 0 1080 1080" style="enable-background:new 0 0 1080 1080;" xml:space="preserve">
<style type="text/css">
	.st0{fill-rule:evenodd;clip-rule:evenodd;fill:#0F75BB;}
	.st1{fill-rule:evenodd;clip-rule:evenodd;fill:url(#SVGID_1_);}
	.st2{fill-rule:evenodd;clip-rule:evenodd;fill:url(#SVGID_00000164472957478915295830000004448279896238367398_);}
	.st3{fill-rule:evenodd;clip-rule:evenodd;fill:url(#SVGID_00000088839422649920000610000018297993167517165978_);}
	.st4{fill-rule:evenodd;clip-rule:evenodd;fill:url(#SVGID_00000178170359422393617640000008870956670035798707_);}
	.st5{fill-rule:evenodd;clip-rule:evenodd;fill:url(#SVGID_00000065037992920431139190000009218729097613238149_);}
	.st6{fill-rule:evenodd;clip-rule:evenodd;fill:#FDFDFF;}
	.st7{fill-rule:evenodd;clip-rule:evenodd;fill:url(#SVGID_00000151511685822170934880000010311937878502112689_);}
	.st8{fill-rule:evenodd;clip-rule:evenodd;fill:url(#SVGID_00000016772971016477584730000018037911133300276638_);}
	.st9{fill-rule:evenodd;clip-rule:evenodd;fill:url(#SVGID_00000119106772567839639010000007745677524775788468_);}
	.st10{fill-rule:evenodd;clip-rule:evenodd;fill:url(#SVGID_00000163795416741882650020000000130974782702401981_);}
	.st11{fill-rule:evenodd;clip-rule:evenodd;fill:url(#SVGID_00000181768613316210379060000013664723180943822782_);}
	.st12{fill:url(#SVGID_00000005976853852827518100000016784443247413466022_);}
	.st13{fill:url(#SVGID_00000182489020525366186190000009773336367541882752_);}
	.st14{fill:url(#SVGID_00000111186704893097554530000007681387153472925317_);}
	.st15{fill:url(#SVGID_00000064330046080046490310000017344255216405575102_);}
	.st16{fill:#1A281A;}
</style>
<g>
	<linearGradient id="SVGID_1_" gradientUnits="userSpaceOnUse" x1="453.8115" y1="469.0937" x2="268.331" y2="471.2779">
		<stop  offset="0" style="stop-color:#007450"/>
		<stop  offset="1" style="stop-color:#40AE49"/>
	</linearGradient>
	<path class="st1" d="M326.53,380.45c-32.28,0-58.7,26.41-58.7,58.7v61.49c0,32.28,26.41,58.7,58.7,58.7H460.7l-8.74-139.84
		c-24.43-18.65-62.31-38.8-62.31-38.8C375.73,378.71,359.82,380.45,326.53,380.45z"/>
	
		<linearGradient id="SVGID_00000026856645745859476330000007013581730858622898_" gradientUnits="userSpaceOnUse" x1="550.9674" y1="734.6517" x2="497.0328" y2="455.0909">
		<stop  offset="0" style="stop-color:#40AE49"/>
		<stop  offset="1" style="stop-color:#85C441"/>
	</linearGradient>
	<path style="fill-rule:evenodd;clip-rule:evenodd;fill:url(#SVGID_00000026856645745859476330000007013581730858622898_);" d="
		M449.52,559.34v122.98c0,32.28,26.41,58.69,58.7,58.69h61.5c32.28,0,57.64-26.43,58.7-58.69
		c4.07-124.95-103.87-253.55-238.75-301.62C430.53,421.57,449.52,439.61,449.52,559.34z"/>
	
		<linearGradient id="SVGID_00000034069217614153587060000007335385768721148564_" gradientUnits="userSpaceOnUse" x1="642.2465" y1="484.4074" x2="785.4308" y2="422.9645">
		<stop  offset="0" style="stop-color:#1F4BA0"/>
		<stop  offset="1" style="stop-color:#3C8BCA"/>
	</linearGradient>
	<path style="fill-rule:evenodd;clip-rule:evenodd;fill:url(#SVGID_00000034069217614153587060000007335385768721148564_);" d="
		M753.47,552.33c32.28,0,58.7-26.41,58.7-58.7v-61.49c0-32.28-26.41-58.7-58.7-58.7H619.31l8.17,130.71
		c22.6,21.51,47.05,42.16,62.87,47.93C704.27,554.07,720.18,552.33,753.47,552.33z"/>
	
		<linearGradient id="SVGID_00000086670938787699583720000000350050132829181098_" gradientUnits="userSpaceOnUse" x1="537.3387" y1="247.0749" x2="601.9548" y2="530.5428">
		<stop  offset="0" style="stop-color:#3C8BCA"/>
		<stop  offset="1" style="stop-color:#4FC6DF"/>
	</linearGradient>
	<path style="fill-rule:evenodd;clip-rule:evenodd;fill:url(#SVGID_00000086670938787699583720000000350050132829181098_);" d="
		M630.49,373.45V250.46c0-32.29-26.42-58.7-58.7-58.7H510.3c-32.28,0-57.65,26.43-58.7,58.7
		c-4.07,124.95,103.86,253.55,238.75,301.62C649.47,511.21,630.49,493.17,630.49,373.45z"/>
	
		<linearGradient id="SVGID_00000143609059280124674190000015800737613129642677_" gradientUnits="userSpaceOnUse" x1="553.946" y1="222.7566" x2="570.9891" y2="432.8339">
		<stop  offset="0" style="stop-color:#3C8BCA"/>
		<stop  offset="1" style="stop-color:#4FC6DF"/>
	</linearGradient>
	<path style="fill-rule:evenodd;clip-rule:evenodd;fill:url(#SVGID_00000143609059280124674190000015800737613129642677_);" d="
		M520.99,191.76h-10.7c-32.28,0-57.65,26.43-58.7,58.7c-4.03,123.76,101.83,251.09,234.92,300.22
		C538.49,489.66,521.42,280.1,520.99,191.76z"/>
</g>
<g>
	
		<linearGradient id="SVGID_00000147930824975368676580000013400833249456204958_" gradientUnits="userSpaceOnUse" x1="411.937" y1="835.6131" x2="471.1634" y2="835.6131">
		<stop  offset="0" style="stop-color:#40AE49"/>
		<stop  offset="1" style="stop-color:#3275BC"/>
	</linearGradient>
	<path style="fill:url(#SVGID_00000147930824975368676580000013400833249456204958_);" d="M471.16,870.71h-13.16v-30.68h-32.91
		v30.68h-13.16v-70.2h13.16v30.2h32.91v-30.2h13.16V870.71z"/>
	
		<linearGradient id="SVGID_00000180326065354588888740000000495474970214733232_" gradientUnits="userSpaceOnUse" x1="485.338" y1="835.6131" x2="561.4583" y2="835.6131">
		<stop  offset="0" style="stop-color:#40AE49"/>
		<stop  offset="1" style="stop-color:#3275BC"/>
	</linearGradient>
	<path style="fill:url(#SVGID_00000180326065354588888740000000495474970214733232_);" d="M522.11,844.81
		c0.47,1.12,0.93,2.24,1.38,3.37c0.45-1.16,0.92-2.31,1.41-3.45c0.49-1.13,1-2.22,1.55-3.25l20.78-38.89
		c0.26-0.49,0.53-0.87,0.8-1.17c0.27-0.29,0.58-0.5,0.92-0.63c0.34-0.13,0.72-0.21,1.14-0.24c0.42-0.03,0.92-0.05,1.5-0.05h9.85
		v70.2h-11.51v-45.34c0-0.84,0.02-1.76,0.07-2.77c0.05-1,0.12-2.02,0.22-3.06l-21.21,39.81c-0.49,0.91-1.12,1.61-1.89,2.11
		s-1.68,0.75-2.72,0.75h-1.8c-1.04,0-1.94-0.25-2.72-0.75s-1.41-1.21-1.89-2.11L496.5,819.4c0.13,1.07,0.22,2.11,0.27,3.13
		c0.05,1.02,0.07,1.97,0.07,2.84v45.34h-11.51v-70.2h9.85c0.58,0,1.08,0.02,1.5,0.05c0.42,0.03,0.8,0.11,1.14,0.24
		c0.34,0.13,0.66,0.34,0.95,0.63c0.29,0.29,0.57,0.68,0.83,1.17l20.97,38.98C521.13,842.62,521.64,843.7,522.11,844.81z"/>
	
		<linearGradient id="SVGID_00000161619548925337478850000010109840574794778021_" gradientUnits="userSpaceOnUse" x1="575.6329" y1="835.6131" x2="619.9069" y2="835.6131">
		<stop  offset="0" style="stop-color:#40AE49"/>
		<stop  offset="1" style="stop-color:#3275BC"/>
	</linearGradient>
	<path style="fill:url(#SVGID_00000161619548925337478850000010109840574794778021_);" d="M619.91,800.51v10.39h-31.12v20.78h26.26
		v10.44h-26.26v28.59h-13.16v-70.2H619.91z"/>
	
		<linearGradient id="SVGID_00000009550175814347039200000013688538300259089838_" gradientUnits="userSpaceOnUse" x1="624.8099" y1="835.6131" x2="672.2389" y2="835.6131">
		<stop  offset="0" style="stop-color:#40AE49"/>
		<stop  offset="1" style="stop-color:#3275BC"/>
	</linearGradient>
	<path style="fill:url(#SVGID_00000009550175814347039200000013688538300259089838_);" d="M667.77,813.28
		c-0.36,0.71-0.77,1.21-1.24,1.51c-0.47,0.29-1.03,0.44-1.68,0.44c-0.65,0-1.38-0.25-2.18-0.75c-0.81-0.5-1.76-1.06-2.86-1.67
		c-1.1-0.61-2.39-1.17-3.86-1.68c-1.47-0.5-3.21-0.75-5.22-0.75c-1.81,0-3.39,0.22-4.73,0.66c-1.34,0.44-2.48,1.04-3.4,1.82
		s-1.61,1.71-2.06,2.79s-0.68,2.27-0.68,3.57c0,1.65,0.46,3.03,1.38,4.13c0.92,1.1,2.14,2.04,3.67,2.82
		c1.52,0.78,3.25,1.47,5.19,2.09c1.94,0.62,3.92,1.27,5.95,1.97c2.02,0.7,4.01,1.5,5.95,2.43s3.67,2.09,5.19,3.5
		c1.52,1.41,2.74,3.13,3.67,5.17c0.92,2.04,1.38,4.52,1.38,7.43c0,3.17-0.54,6.14-1.63,8.91c-1.08,2.77-2.67,5.18-4.76,7.23
		c-2.09,2.05-4.64,3.67-7.65,4.85c-3.01,1.18-6.46,1.77-10.34,1.77c-2.23,0-4.44-0.22-6.6-0.66c-2.17-0.44-4.25-1.06-6.24-1.87
		c-1.99-0.81-3.85-1.78-5.58-2.91c-1.73-1.13-3.28-2.39-4.64-3.79l3.79-6.26c0.36-0.45,0.78-0.83,1.29-1.14
		c0.5-0.31,1.06-0.46,1.68-0.46c0.81,0,1.68,0.33,2.62,1c0.94,0.66,2.05,1.4,3.33,2.21c1.28,0.81,2.78,1.55,4.51,2.21
		c1.73,0.66,3.81,1,6.24,1c3.72,0,6.6-0.88,8.64-2.65c2.04-1.76,3.06-4.3,3.06-7.6c0-1.84-0.46-3.35-1.38-4.52
		c-0.92-1.16-2.15-2.14-3.67-2.94c-1.52-0.79-3.25-1.46-5.19-2.01c-1.94-0.55-3.92-1.15-5.92-1.8c-2.01-0.65-3.98-1.42-5.92-2.33
		c-1.94-0.91-3.67-2.09-5.19-3.54c-1.52-1.46-2.74-3.28-3.67-5.46c-0.92-2.18-1.38-4.88-1.38-8.08c0-2.56,0.51-5.05,1.53-7.48
		c1.02-2.43,2.51-4.58,4.47-6.46c1.96-1.88,4.36-3.38,7.21-4.52c2.85-1.13,6.1-1.7,9.76-1.7c4.14,0,7.96,0.65,11.46,1.94
		c3.49,1.29,6.47,3.11,8.93,5.44L667.77,813.28z"/>
</g>
<g>
	<path class="st16" d="M138.67,625.98l-21.14,4.95l8.1,34.6l-14.85,3.48l-8.1-34.6l-29.14,6.82l-4.05-17.3l79.99-18.73l13.23,56.49
		l-14.85,3.48L138.67,625.98z"/>
	<path class="st16" d="M100.81,719.35c0.52-6.14,2.56-11.71,6.14-16.7c3.57-5,8.39-8.87,14.44-11.62
		c6.05-2.75,12.16-3.84,18.31-3.26c6.15,0.58,11.71,2.69,16.67,6.34c4.96,3.65,8.84,8.53,11.62,14.66
		c2.78,6.12,3.91,12.26,3.4,18.39c-0.52,6.14-2.58,11.72-6.19,16.73c-3.61,5.01-8.44,8.9-14.49,11.65
		c-6.06,2.75-12.14,3.83-18.25,3.23c-6.12-0.59-11.66-2.72-16.62-6.36c-4.97-3.65-8.84-8.53-11.62-14.66
		C101.43,731.62,100.29,725.49,100.81,719.35z M124.13,738.75c2.7,1.79,5.74,2.75,9.12,2.9c3.38,0.15,6.78-0.55,10.19-2.1
		c3.49-1.59,6.29-3.7,8.4-6.35c2.11-2.64,3.38-5.57,3.81-8.78c0.43-3.21-0.05-6.34-1.44-9.41c-1.39-3.06-3.44-5.48-6.14-7.27
		c-2.7-1.78-5.75-2.77-9.14-2.95c-3.39-0.19-6.84,0.52-10.32,2.1c-3.42,1.55-6.18,3.67-8.27,6.35c-2.09,2.68-3.36,5.62-3.79,8.83
		c-0.43,3.21,0.05,6.34,1.44,9.41C119.38,734.54,121.43,736.97,124.13,738.75z"/>
	<path class="st16" d="M191.84,756.99l9.9,14.23l-43.55,30.29l17.6,25.3l-11.85,8.24l-27.49-39.53L191.84,756.99z"/>
	<path class="st16" d="M228.59,806.98l11.92,12.58L202,856.04l21.2,22.37l-10.48,9.93l-33.11-34.95L228.59,806.98z"/>
	<path class="st16" d="M244.09,910.66c-2.53-5.62-3.46-11.47-2.76-17.58c0.69-6.1,3.01-11.83,6.96-17.18
		c3.95-5.35,8.75-9.27,14.41-11.75c5.65-2.49,11.54-3.34,17.65-2.57c6.11,0.77,11.87,3.15,17.29,7.15c5.41,4,9.38,8.8,11.92,14.42
		c2.53,5.62,3.44,11.49,2.73,17.63c-0.71,6.14-3.05,11.88-7,17.23c-3.95,5.35-8.74,9.25-14.37,11.71c-5.63,2.46-11.5,3.3-17.62,2.53
		c-6.11-0.77-11.88-3.15-17.29-7.15C250.59,921.08,246.62,916.28,244.09,910.66z M273.9,916.27c3.23,0.25,6.35-0.39,9.38-1.9
		c3.02-1.51,5.65-3.78,7.88-6.8c2.28-3.08,3.69-6.29,4.25-9.63c0.55-3.33,0.24-6.51-0.94-9.52c-1.18-3.01-3.13-5.52-5.83-7.52
		c-2.71-2-5.67-3.12-8.9-3.37c-3.23-0.24-6.37,0.38-9.42,1.87c-3.06,1.49-5.72,3.78-8,6.86c-2.23,3.02-3.61,6.21-4.13,9.57
		c-0.53,3.36-0.2,6.54,0.99,9.56c1.18,3.01,3.13,5.52,5.83,7.52C267.7,914.9,270.67,916.02,273.9,916.27z"/>
	<path class="st16" d="M432.51,938.92l-44.97,54.46l-17.14-7.06l4.4-44.39l-28.44,34.49l-17.14-7.06l6.33-70.37l16.53,6.81
		l-4.53,45.85l29.58-35.54l14.81,6.1l-4.75,46.66l29.9-36.3L432.51,938.92z"/>
	<path class="st16" d="M444.69,966.64l30.52,5.66l-2.67,14.42l-30.52-5.66L444.69,966.64z"/>
	<path class="st16" d="M505.59,1008.27c-5.99-6.6-8.87-15.93-8.64-27.98l0.85-46l17.76,0.33l-0.84,45.29
		c-0.27,14.71,5.29,22.16,16.7,22.38c5.55,0.1,9.83-1.6,12.82-5.1c2.99-3.5,4.56-9.05,4.7-16.64l0.84-45.29l17.55,0.32l-0.85,46
		c-0.22,12.05-3.45,21.26-9.67,27.64c-6.22,6.38-14.82,9.47-25.79,9.27C520.05,1018.28,511.57,1014.88,505.59,1008.27z"/>
	<path class="st16" d="M640.61,944.73c5.85,3.39,9.5,8.89,10.94,16.5c1.43,7.53,0.04,13.95-4.17,19.24
		c-4.21,5.3-10.58,8.75-19.13,10.38l-11.21,2.12l3.32,17.53l-17.03,3.23l-12.57-66.3l28.23-5.35
		C627.56,940.46,634.76,941.35,640.61,944.73z M632.84,972.66c1.68-2.15,2.2-4.88,1.58-8.18c-0.63-3.3-2.11-5.65-4.46-7.04
		c-2.35-1.39-5.5-1.71-9.45-0.96l-10.02,1.9l3.89,20.52l10.02-1.9C628.35,976.26,631.17,974.81,632.84,972.66z"/>
	<path class="st16" d="M732.6,975.72c-5.86,0.91-10.96,0.86-15.28-0.16l-0.88-15.51c4.09,0.87,8.51,1.02,13.28,0.43
		c4.76-0.59,9.17-1.88,13.25-3.87c4.53-2.22,7.53-4.58,8.99-7.08c1.46-2.5,1.61-4.95,0.44-7.34c-0.86-1.76-2.21-2.9-4.06-3.43
		c-1.85-0.53-3.95-0.66-6.29-0.38c-2.35,0.28-5.44,0.83-9.26,1.66c-5.91,1.24-10.86,2.01-14.87,2.31c-4,0.31-7.93-0.43-11.77-2.21
		c-3.84-1.78-6.97-5.13-9.37-10.05c-2.1-4.29-2.92-8.7-2.45-13.24c0.46-4.54,2.38-8.9,5.75-13.07c3.37-4.17,8.21-7.81,14.51-10.89
		c4.4-2.15,8.98-3.7,13.73-4.63c4.75-0.93,9.22-1.12,13.41-0.55l1.42,15.38c-8.26-0.75-15.58,0.44-21.95,3.56
		c-4.47,2.19-7.39,4.58-8.76,7.17c-1.38,2.59-1.45,5.15-0.21,7.68s3.39,3.81,6.45,3.83c3.07,0.02,7.42-0.6,13.06-1.88
		c5.91-1.24,10.86-2.01,14.87-2.31c4-0.3,7.91,0.4,11.72,2.11c3.81,1.71,6.92,5.02,9.32,9.94c2.06,4.22,2.85,8.6,2.35,13.16
		c-0.5,4.56-2.45,8.93-5.85,13.12c-3.4,4.19-8.26,7.83-14.56,10.92C744.11,973.02,738.46,974.81,732.6,975.72z"/>
	<path class="st16" d="M816.25,901.35l13.29,18.05l-13.96,10.27l-13.29-18.05l-47.21-21.21l14.75-10.86l30.21,13.47l-3.97-32.78
		l14.04-10.34L816.25,901.35z"/>
	<path class="st16" d="M870.98,883.09c-4.34,2.57-8.32,4.13-11.92,4.71l-5.65-13.89c3.45-0.63,6.91-1.9,10.4-3.81
		c3.49-1.91,6.61-4.28,9.36-7.12c2.54-2.62,4.01-4.89,4.4-6.81c0.39-1.92-0.06-3.5-1.36-4.75c-1.46-1.42-3.25-1.73-5.38-0.94
		c-2.13,0.79-5.08,2.46-8.86,5c-4.2,2.75-7.83,4.84-10.89,6.25c-3.06,1.41-6.37,1.99-9.94,1.74c-3.57-0.25-7.07-2.04-10.49-5.37
		c-3.03-2.94-4.94-6.37-5.72-10.29c-0.78-3.91-0.34-8.05,1.32-12.4c1.66-4.35,4.5-8.6,8.52-12.74c2.95-3.04,6.18-5.67,9.68-7.87
		c3.5-2.2,6.97-3.67,10.41-4.41l5.96,13.58c-6.14,1.38-11.52,4.46-16.16,9.24c-2.5,2.57-3.93,4.87-4.32,6.89
		c-0.38,2.02,0.1,3.69,1.45,5c1.46,1.42,3.24,1.72,5.34,0.9c2.1-0.81,5.04-2.5,8.82-5.04c4.15-2.7,7.76-4.77,10.85-6.21
		c3.09-1.44,6.4-2.04,9.94-1.82s6.97,1.95,10.28,5.16c3.09,3,5.04,6.44,5.84,10.33c0.8,3.89,0.37,8.02-1.32,12.4
		c-1.69,4.38-4.59,8.69-8.71,12.94C879.27,877.41,875.32,880.53,870.98,883.09z"/>
	<path class="st16" d="M881.64,791.51l-11.45,16.21l-11.79-8.33l32.91-46.58l11.79,8.33l-11.45,16.21l43.32,30.61l-10,14.15
		L881.64,791.51z"/>
	<path class="st16" d="M968.07,718.77l12.75,6.25l-22.35,45.6l-60.59-29.7l21.82-44.52l12.75,6.25l-14.29,29.15l11.06,5.42
		l12.65-25.8l12.12,5.94l-12.65,25.8l11.91,5.84L968.07,718.77z"/>
	<path class="st16" d="M1007.14,639.93l-35.7-9.14l24.5,23.8l-1.95,7.54l-31.82,9.09l34.53,8.95l-4.04,15.61l-65.32-16.93
		l3.63-14.01l43.61-12.04l-32.41-31.17l3.66-14.12l65.38,16.72L1007.14,639.93z"/>
</g>
<g>
	<path class="st16" d="M91.89,421.23l5.52-16.43l24.47,8.22l8.17-24.33l-24.47-8.22l5.52-16.43l63.97,21.49l-5.52,16.43l-25.36-8.52
		l-8.17,24.33l25.36,8.52l-5.52,16.43L91.89,421.23z"/>
	<path class="st16" d="M192.52,322.02l12.5,6.73l-24.08,44.71l-59.41-32l23.51-43.65l12.5,6.73l-15.39,28.58l10.85,5.84l13.63-25.3
		l11.88,6.4l-13.62,25.3l11.67,6.29L192.52,322.02z"/>
	<path class="st16" d="M224.77,279.93l-17.97,23.4l7.41,12.32l-10.22,13.31l-36.29-63.54l10.42-13.57l70.82,18.56l-10.42,13.57
		L224.77,279.93z M210.95,275.96l-25.11-7.38l13.55,22.43L210.95,275.96z"/>
	<path class="st16" d="M206.28,219.16l12.54-11.96l36.6,38.4l22.31-21.26l9.96,10.45l-34.85,33.22L206.28,219.16z"/>
	<path class="st16" d="M271.36,181.27l-16.11,11.6l-8.44-11.71l46.28-33.33l8.44,11.71l-16.11,11.6l31,43.04l-14.06,10.13
		L271.36,181.27z"/>
	<path class="st16" d="M306.2,139.74l15.5-7.76l11.56,23.08l22.95-11.49l-11.56-23.09l15.5-7.76l30.22,60.34l-15.49,7.76
		l-11.98-23.92l-22.95,11.49l11.98,23.92l-15.5,7.76L306.2,139.74z"/>
	<path class="st16" d="M485.78,148.12l-7.02-36.17l-11.02,32.33l-7.65,1.46l-21.84-24.86l6.7,35.04l-15.84,3.03l-12.67-66.28
		l14.22-2.72l29.55,34.26l14.3-42.64l14.33-2.74l12.88,66.24L485.78,148.12z"/>
	<path class="st16" d="M556.55,131.85l-29.5-0.48l-5.48,13.29l-16.78-0.27l29.39-67.01l17.11,0.28l27.31,67.93l-17.11-0.28
		L556.55,131.85z M551.5,118.39l-9.04-24.56l-9.94,24.25L551.5,118.39z"/>
	<path class="st16" d="M653.97,90.64l-12.23,66.36l-14.02-2.58l-21.84-41.85l-6.74,36.59l-16.72-3.08l12.23-66.36l14.02,2.58
		l21.82,41.97l6.76-36.7L653.97,90.64z"/>
	<path class="st16" d="M698.24,163.1l-27.59-10.44l-9.66,10.65l-15.69-5.94l50.35-53.09l16,6.06l2.68,73.17l-16-6.06L698.24,163.1z
		 M698.05,148.73l-0.18-26.17l-17.57,19.45L698.05,148.73z"/>
	<path class="st16" d="M770.45,177.08l13.59,8.05l-13.93,23.53c-4.35,0.61-8.92,0.35-13.7-0.75c-4.78-1.11-9.13-2.81-13.03-5.12
		c-5.98-3.54-10.54-7.99-13.69-13.36c-3.15-5.37-4.68-11.11-4.58-17.24c0.1-6.12,1.84-12.05,5.23-17.77
		c3.39-5.72,7.77-10.11,13.14-13.15c5.37-3.05,11.17-4.48,17.39-4.29c6.22,0.18,12.26,2.01,18.11,5.47
		c10.44,6.18,16.29,14.33,17.53,24.43l-15.38,3.58c-0.92-6.63-4.14-11.59-9.68-14.87c-4.66-2.76-9.42-3.44-14.28-2.04
		c-4.86,1.4-8.81,4.65-11.84,9.77c-2.99,5.05-3.93,10.04-2.81,14.97c1.11,4.93,4.06,8.82,8.84,11.65c3.02,1.79,6.21,2.86,9.57,3.21
		L770.45,177.08z"/>
	<path class="st16" d="M818.06,258.67l24.42-27.6l-32.36,10.95l-5.82-5.18l6.43-32.46l-23.72,26.65l-12.04-10.72l44.87-50.4
		l10.81,9.63l-9.19,44.3l42.53-14.62l10.9,9.7l-44.7,50.55L818.06,258.67z"/>
	<path class="st16" d="M880.76,311.68l-11.23,8.69l-31.07-40.17l53.38-41.28l30.33,39.22l-11.23,8.69l-19.86-25.68l-9.75,7.54
		l17.58,22.73l-10.68,8.26l-17.58-22.73l-10.49,8.11L880.76,311.68z"/>
	<path class="st16" d="M962.22,348.58l-59.49,31.85L896,367.87l19.08-43.18l-32.8,17.56l-8.02-14.99l59.49-31.85l6.73,12.57
		l-19.18,43.24l32.9-17.61L962.22,348.58z"/>
	<path class="st16" d="M961.52,387.48l-6.39-18.8l13.67-4.65l18.36,54l-13.67,4.65l-6.39-18.8l-50.22,17.08l-5.58-16.41
		L961.52,387.48z"/>
</g>
</svg>
