<?xml version="1.0" encoding="utf-8"?>
<!-- Generator: Adobe Illustrator 26.0.1, SVG Export Plug-In . SVG Version: 6.00 Build 0)  -->
<svg version="1.1" id="Layer_1" xmlns="http://www.w3.org/2000/svg" xmlns:xlink="http://www.w3.org/1999/xlink" x="0px" y="0px"
	 viewBox="0 0 1080 1080" style="enable-background:new 0 0 1080 1080;" xml:space="preserve">
<style type="text/css">
	.st0{fill-rule:evenodd;clip-rule:evenodd;fill:#0F75BB;}
	.st1{fill-rule:evenodd;clip-rule:evenodd;fill:url(#SVGID_1_);}
	.st2{fill-rule:evenodd;clip-rule:evenodd;fill:url(#SVGID_00000037669527799514740130000009651316712955198105_);}
	.st3{fill-rule:evenodd;clip-rule:evenodd;fill:url(#SVGID_00000088127557433822552740000001870789464250230455_);}
	.st4{fill-rule:evenodd;clip-rule:evenodd;fill:url(#SVGID_00000098933641151429966710000017942066382219895698_);}
	.st5{fill-rule:evenodd;clip-rule:evenodd;fill:url(#SVGID_00000054963130806892553550000013692921825482803089_);}
	.st6{fill-rule:evenodd;clip-rule:evenodd;fill:#FDFDFF;}
	.st7{fill-rule:evenodd;clip-rule:evenodd;fill:url(#SVGID_00000180355589214581099940000006136875891091965584_);}
	.st8{fill-rule:evenodd;clip-rule:evenodd;fill:url(#SVGID_00000095332062121422594420000006872885196780862633_);}
	.st9{fill-rule:evenodd;clip-rule:evenodd;fill:url(#SVGID_00000075158303079199733770000001729067943927354541_);}
	.st10{fill-rule:evenodd;clip-rule:evenodd;fill:url(#SVGID_00000137122186703590031890000016869798266976718780_);}
	.st11{fill-rule:evenodd;clip-rule:evenodd;fill:url(#SVGID_00000161616564561943050080000010470690073975077769_);}
	.st12{fill:url(#SVGID_00000140694571927937616300000008887358297438596229_);}
	.st13{fill:url(#SVGID_00000117645473243890398790000003787888364254636440_);}
	.st14{fill:url(#SVGID_00000031191657156193526830000009630403889595488958_);}
	.st15{fill:url(#SVGID_00000000914427279678447090000010856159667425313970_);}
	.st16{fill-rule:evenodd;clip-rule:evenodd;fill:url(#SVGID_00000047054412800273696900000011942203472564589460_);}
	.st17{fill-rule:evenodd;clip-rule:evenodd;fill:url(#SVGID_00000134232205322021210780000004396639004995806877_);}
	.st18{fill-rule:evenodd;clip-rule:evenodd;fill:url(#SVGID_00000125604279295208242140000002990836154037560734_);}
	.st19{fill-rule:evenodd;clip-rule:evenodd;fill:url(#SVGID_00000093857247395928032350000011814866876954429620_);}
	.st20{fill-rule:evenodd;clip-rule:evenodd;fill:url(#SVGID_00000101086051431509862780000004371922730653120439_);}
	.st21{fill:url(#SVGID_00000013901419729694050700000011761727965585755034_);}
	.st22{fill:url(#SVGID_00000128477991973834952390000004596375832957678981_);}
	.st23{fill:url(#SVGID_00000183953528047921935040000000713880494199495333_);}
	.st24{fill:url(#SVGID_00000155148644328147669140000013619972515992561805_);}
</style>
<g>
	<linearGradient id="SVGID_1_" gradientUnits="userSpaceOnUse" x1="453.8115" y1="469.0937" x2="268.331" y2="471.2779">
		<stop  offset="0" style="stop-color:#007450"/>
		<stop  offset="1" style="stop-color:#40AE49"/>
	</linearGradient>
	<path class="st1" d="M326.53,380.45c-32.28,0-58.7,26.41-58.7,58.7v61.49c0,32.28,26.41,58.7,58.7,58.7H460.7l-8.74-139.84
		c-24.43-18.65-62.31-38.8-62.31-38.8C375.73,378.71,359.82,380.45,326.53,380.45z"/>
	
		<linearGradient id="SVGID_00000104687001246901686240000004848662617392121733_" gradientUnits="userSpaceOnUse" x1="550.9674" y1="734.6517" x2="497.0328" y2="455.0909">
		<stop  offset="0" style="stop-color:#40AE49"/>
		<stop  offset="1" style="stop-color:#85C441"/>
	</linearGradient>
	<path style="fill-rule:evenodd;clip-rule:evenodd;fill:url(#SVGID_00000104687001246901686240000004848662617392121733_);" d="
		M449.52,559.34v122.98c0,32.28,26.41,58.69,58.7,58.69h61.5c32.28,0,57.64-26.43,58.7-58.69
		c4.07-124.95-103.87-253.55-238.75-301.62C430.53,421.57,449.52,439.61,449.52,559.34z"/>
	
		<linearGradient id="SVGID_00000047050610065263598920000010824450373210850457_" gradientUnits="userSpaceOnUse" x1="642.2465" y1="484.4074" x2="785.4308" y2="422.9645">
		<stop  offset="0" style="stop-color:#1F4BA0"/>
		<stop  offset="1" style="stop-color:#3C8BCA"/>
	</linearGradient>
	<path style="fill-rule:evenodd;clip-rule:evenodd;fill:url(#SVGID_00000047050610065263598920000010824450373210850457_);" d="
		M753.47,552.33c32.28,0,58.7-26.41,58.7-58.7v-61.49c0-32.28-26.41-58.7-58.7-58.7H619.31l8.17,130.71
		c22.6,21.51,47.05,42.16,62.87,47.93C704.27,554.07,720.18,552.33,753.47,552.33z"/>
	
		<linearGradient id="SVGID_00000081608837191681287830000016288117382282393790_" gradientUnits="userSpaceOnUse" x1="537.3387" y1="247.0749" x2="601.9548" y2="530.5428">
		<stop  offset="0" style="stop-color:#3C8BCA"/>
		<stop  offset="1" style="stop-color:#4FC6DF"/>
	</linearGradient>
	<path style="fill-rule:evenodd;clip-rule:evenodd;fill:url(#SVGID_00000081608837191681287830000016288117382282393790_);" d="
		M630.49,373.45V250.46c0-32.29-26.42-58.7-58.7-58.7H510.3c-32.28,0-57.65,26.43-58.7,58.7
		c-4.07,124.95,103.86,253.55,238.75,301.62C649.47,511.21,630.49,493.17,630.49,373.45z"/>
	
		<linearGradient id="SVGID_00000072255462581077484440000014115290308752502402_" gradientUnits="userSpaceOnUse" x1="553.946" y1="222.7566" x2="570.9891" y2="432.8339">
		<stop  offset="0" style="stop-color:#3C8BCA"/>
		<stop  offset="1" style="stop-color:#4FC6DF"/>
	</linearGradient>
	<path style="fill-rule:evenodd;clip-rule:evenodd;fill:url(#SVGID_00000072255462581077484440000014115290308752502402_);" d="
		M520.99,191.76h-10.7c-32.28,0-57.65,26.43-58.7,58.7c-4.03,123.76,101.83,251.09,234.92,300.22
		C538.49,489.66,521.42,280.1,520.99,191.76z"/>
</g>
<g>
	
		<linearGradient id="SVGID_00000156546515237464294040000008216177675281191861_" gradientUnits="userSpaceOnUse" x1="411.937" y1="835.6131" x2="471.1634" y2="835.6131">
		<stop  offset="0" style="stop-color:#40AE49"/>
		<stop  offset="1" style="stop-color:#3275BC"/>
	</linearGradient>
	<path style="fill:url(#SVGID_00000156546515237464294040000008216177675281191861_);" d="M471.16,870.71h-13.16v-30.68h-32.91
		v30.68h-13.16v-70.2h13.16v30.2h32.91v-30.2h13.16V870.71z"/>
	
		<linearGradient id="SVGID_00000083775309458318640950000009334385325012616119_" gradientUnits="userSpaceOnUse" x1="485.338" y1="835.6131" x2="561.4583" y2="835.6131">
		<stop  offset="0" style="stop-color:#40AE49"/>
		<stop  offset="1" style="stop-color:#3275BC"/>
	</linearGradient>
	<path style="fill:url(#SVGID_00000083775309458318640950000009334385325012616119_);" d="M522.11,844.81
		c0.47,1.12,0.93,2.24,1.38,3.37c0.45-1.16,0.92-2.31,1.41-3.45c0.49-1.13,1-2.22,1.55-3.25l20.78-38.89
		c0.26-0.49,0.53-0.87,0.8-1.17c0.27-0.29,0.58-0.5,0.92-0.63c0.34-0.13,0.72-0.21,1.14-0.24c0.42-0.03,0.92-0.05,1.5-0.05h9.85
		v70.2h-11.51v-45.34c0-0.84,0.02-1.76,0.07-2.77c0.05-1,0.12-2.02,0.22-3.06l-21.21,39.81c-0.49,0.91-1.12,1.61-1.89,2.11
		s-1.68,0.75-2.72,0.75h-1.8c-1.04,0-1.94-0.25-2.72-0.75s-1.41-1.21-1.89-2.11L496.5,819.4c0.13,1.07,0.22,2.11,0.27,3.13
		c0.05,1.02,0.07,1.97,0.07,2.84v45.34h-11.51v-70.2h9.85c0.58,0,1.08,0.02,1.5,0.05c0.42,0.03,0.8,0.11,1.14,0.24
		c0.34,0.13,0.66,0.34,0.95,0.63c0.29,0.29,0.57,0.68,0.83,1.17l20.97,38.98C521.13,842.62,521.64,843.7,522.11,844.81z"/>
	
		<linearGradient id="SVGID_00000021083181568314234810000014215412411429743235_" gradientUnits="userSpaceOnUse" x1="575.6329" y1="835.6131" x2="619.9069" y2="835.6131">
		<stop  offset="0" style="stop-color:#40AE49"/>
		<stop  offset="1" style="stop-color:#3275BC"/>
	</linearGradient>
	<path style="fill:url(#SVGID_00000021083181568314234810000014215412411429743235_);" d="M619.91,800.51v10.39h-31.12v20.78h26.26
		v10.44h-26.26v28.59h-13.16v-70.2H619.91z"/>
	
		<linearGradient id="SVGID_00000064327452773083206430000003280495434200624810_" gradientUnits="userSpaceOnUse" x1="624.8099" y1="835.6131" x2="672.2389" y2="835.6131">
		<stop  offset="0" style="stop-color:#40AE49"/>
		<stop  offset="1" style="stop-color:#3275BC"/>
	</linearGradient>
	<path style="fill:url(#SVGID_00000064327452773083206430000003280495434200624810_);" d="M667.77,813.28
		c-0.36,0.71-0.77,1.21-1.24,1.51c-0.47,0.29-1.03,0.44-1.68,0.44c-0.65,0-1.38-0.25-2.18-0.75c-0.81-0.5-1.76-1.06-2.86-1.67
		c-1.1-0.61-2.39-1.17-3.86-1.68c-1.47-0.5-3.21-0.75-5.22-0.75c-1.81,0-3.39,0.22-4.73,0.66c-1.34,0.44-2.48,1.04-3.4,1.82
		s-1.61,1.71-2.06,2.79s-0.68,2.27-0.68,3.57c0,1.65,0.46,3.03,1.38,4.13c0.92,1.1,2.14,2.04,3.67,2.82
		c1.52,0.78,3.25,1.47,5.19,2.09c1.94,0.62,3.92,1.27,5.95,1.97c2.02,0.7,4.01,1.5,5.95,2.43s3.67,2.09,5.19,3.5
		c1.52,1.41,2.74,3.13,3.67,5.17c0.92,2.04,1.38,4.52,1.38,7.43c0,3.17-0.54,6.14-1.63,8.91c-1.08,2.77-2.67,5.18-4.76,7.23
		c-2.09,2.05-4.64,3.67-7.65,4.85c-3.01,1.18-6.46,1.77-10.34,1.77c-2.23,0-4.44-0.22-6.6-0.66c-2.17-0.44-4.25-1.06-6.24-1.87
		c-1.99-0.81-3.85-1.78-5.58-2.91c-1.73-1.13-3.28-2.39-4.64-3.79l3.79-6.26c0.36-0.45,0.78-0.83,1.29-1.14
		c0.5-0.31,1.06-0.46,1.68-0.46c0.81,0,1.68,0.33,2.62,1c0.94,0.66,2.05,1.4,3.33,2.21c1.28,0.81,2.78,1.55,4.51,2.21
		c1.73,0.66,3.81,1,6.24,1c3.72,0,6.6-0.88,8.64-2.65c2.04-1.76,3.06-4.3,3.06-7.6c0-1.84-0.46-3.35-1.38-4.52
		c-0.92-1.16-2.15-2.14-3.67-2.94c-1.52-0.79-3.25-1.46-5.19-2.01c-1.94-0.55-3.92-1.15-5.92-1.8c-2.01-0.65-3.98-1.42-5.92-2.33
		c-1.94-0.91-3.67-2.09-5.19-3.54c-1.52-1.46-2.74-3.28-3.67-5.46c-0.92-2.18-1.38-4.88-1.38-8.08c0-2.56,0.51-5.05,1.53-7.48
		c1.02-2.43,2.51-4.58,4.47-6.46c1.96-1.88,4.36-3.38,7.21-4.52c2.85-1.13,6.1-1.7,9.76-1.7c4.14,0,7.96,0.65,11.46,1.94
		c3.49,1.29,6.47,3.11,8.93,5.44L667.77,813.28z"/>
</g>
</svg>
