<svg version="1.2" xmlns="http://www.w3.org/2000/svg" viewBox="0 0 754 760" width="754" height="760"><defs><linearGradient id="P" gradientUnits="userSpaceOnUse"/><linearGradient id="g1" x1="259" y1="510.9" x2="2.4" y2="513.9" href="#P"><stop stop-color="#217857"/><stop offset="1" stop-color="#3bb65b"/></linearGradient><linearGradient id="g2" x1="258.9" y1="776.8" x2="184.3" y2="390.1" href="#P"><stop stop-color="#3bb65b"/><stop offset="1" stop-color="#79c357"/></linearGradient><linearGradient id="g3" x1="456.9" y1="262.3" x2="654.9" y2="177.3" href="#P"><stop stop-color="#1357a7"/><stop offset="1" stop-color="#308bca"/></linearGradient><linearGradient id="g4" x1="506.8" y1="46.5" x2="596.1" y2="438.6" href="#P"><stop stop-color="#308bca"/><stop offset="1" stop-color="#3cc4db"/></linearGradient><linearGradient id="g5" x1="544.1" y1="31.2" x2="567.7" y2="321.8" href="#P"><stop stop-color="#308bca"/><stop offset="1" stop-color="#3cc4db"/></linearGradient></defs><style>tspan{white-space:pre}.a{fill:url(#g1)}.b{fill:url(#g2)}.c{fill:url(#g3)}.d{fill:url(#g4)}.e{fill:url(#g5)}</style><path class="a" d="m168.8 261.7c0 0 52.4 27.8 86.2 53.6l12.1 193.5h-185.6c-44.7 0-81.3-36.6-81.3-81.2v-85.1c0-44.7 36.6-81.2 81.3-81.2 46 0 68-2.4 87.3 0.4z"/><path class="b" d="m168.8 261.7c186.6 66.5 335.9 244.4 330.3 417.2-1.5 44.7-36.6 81.2-81.2 81.2h-85.1c-44.7 0-81.2-36.5-81.2-81.2v-170.1c0-165.6-26.3-190.6-82.8-247.1z"/><path class="c" d="m584.8 498.8c-21.9-8-55.7-36.6-87-66.3l-11.3-180.9h185.6c44.6 0 81.2 36.6 81.2 81.2v85.1c0 44.7-36.6 81.2-81.2 81.2-46.1 0-68.1 2.4-87.3-0.3z"/><path class="d" d="m584.8 498.8c-186.6-66.6-336-244.5-330.3-417.3 1.4-44.7 36.5-81.2 81.2-81.2h85c44.7 0 81.3 36.5 81.3 81.2v170.1c0 165.6 26.2 190.6 82.8 247.2z"/><path class="e" d="m579.5 496.8c-184.2-68-330.6-244.1-325-415.3 1.4-44.7 36.5-81.2 81.2-81.2h14.8c0.6 122.2 24.2 412.1 229 496.5z"/></svg>