<svg id="_27_Icon_person" data-name="27) Icon/person" xmlns="http://www.w3.org/2000/svg" width="30" height="30" viewBox="0 0 30 30">
  <path id="_Icon_Сolor" data-name="🎨 Icon Сolor" d="M21.25,22.5H3.75A3.754,3.754,0,0,1,0,18.75v-10A3.754,3.754,0,0,1,3.75,5H7.5V3.125A3.128,3.128,0,0,1,10.624,0h3.751A3.129,3.129,0,0,1,17.5,3.125V5h3.75A3.754,3.754,0,0,1,25,8.75v10A3.754,3.754,0,0,1,21.25,22.5Zm-2.5-15V20h2.5a1.251,1.251,0,0,0,1.25-1.25v-10A1.251,1.251,0,0,0,21.25,7.5Zm-10,0V20h7.5V7.5Zm-5,0A1.251,1.251,0,0,0,2.5,8.75v10A1.251,1.251,0,0,0,3.75,20h2.5V7.5Zm6.875-5A.626.626,0,0,0,10,3.125V5h5V3.125a.626.626,0,0,0-.624-.626Z" transform="translate(2.5 3.75)" fill="#6574cf"/>
</svg>
