<svg id="_27_Icon_calendar" data-name="27) Icon/calendar" xmlns="http://www.w3.org/2000/svg" xmlns:xlink="http://www.w3.org/1999/xlink" width="22" height="22" viewBox="0 0 22 22">
  <defs>
    <clipPath id="clip-path">
      <path id="_Icon_小olor" data-name=" Icon 小olor" d="M13.75,18.333h-11A2.753,2.753,0,0,1,0,15.583v-11A2.753,2.753,0,0,1,2.75,1.833h.917V.917A.917.917,0,0,1,5.5.917v.917H11V.917a.917.917,0,0,1,1.834,0v.917h.917A2.753,2.753,0,0,1,16.5,4.584v11A2.753,2.753,0,0,1,13.75,18.333ZM1.833,10.083v5.5a.918.918,0,0,0,.917.917h11a.918.918,0,0,0,.917-.917v-5.5ZM2.75,3.666a.918.918,0,0,0-.917.917V8.25H14.667V4.584a.918.918,0,0,0-.917-.917h-.917v.917a.917.917,0,0,1-1.834,0V3.666H5.5v.917a.917.917,0,0,1-1.834,0V3.666ZM11.916,13.75H8.25a.917.917,0,0,1,0-1.834h3.666a.917.917,0,1,1,0,1.834Zm-7.333,0a.917.917,0,1,1,.917-.917A.918.918,0,0,1,4.584,13.75Z" fill="#222b45"/>
    </clipPath>
  </defs>
  <g id="Group_41" data-name="Group 41" transform="translate(2.75 1.833)">
    <path id="_Icon_小olor-2" data-name=" Icon 小olor" d="M13.75,18.333h-11A2.753,2.753,0,0,1,0,15.583v-11A2.753,2.753,0,0,1,2.75,1.833h.917V.917A.917.917,0,0,1,5.5.917v.917H11V.917a.917.917,0,0,1,1.834,0v.917h.917A2.753,2.753,0,0,1,16.5,4.584v11A2.753,2.753,0,0,1,13.75,18.333ZM1.833,10.083v5.5a.918.918,0,0,0,.917.917h11a.918.918,0,0,0,.917-.917v-5.5ZM2.75,3.666a.918.918,0,0,0-.917.917V8.25H14.667V4.584a.918.918,0,0,0-.917-.917h-.917v.917a.917.917,0,0,1-1.834,0V3.666H5.5v.917a.917.917,0,0,1-1.834,0V3.666ZM11.916,13.75H8.25a.917.917,0,0,1,0-1.834h3.666a.917.917,0,1,1,0,1.834Zm-7.333,0a.917.917,0,1,1,.917-.917A.918.918,0,0,1,4.584,13.75Z" fill="#8f9bb3"/>
  </g>
</svg>
