<svg id="_27_Icon_person" data-name="27) Icon/person" xmlns="http://www.w3.org/2000/svg" xmlns:xlink="http://www.w3.org/1999/xlink" width="30" height="30" viewBox="0 0 30 30">
  <defs>
    <clipPath id="clip-path">
      <path id="_Icon_小olor" data-name=" Icon 小olor" d="M5.546,23.694a1.252,1.252,0,0,1-1.231-1.463L5.53,15.2.379,10.215a1.251,1.251,0,0,1,.69-2.135L8.195,7.045,11.378.638a1.3,1.3,0,0,1,2.24,0L16.8,7.045,23.929,8.08a1.251,1.251,0,0,1,.689,2.135L19.467,15.2l1.215,7.035a1.245,1.245,0,0,1-.5,1.223,1.226,1.226,0,0,1-.735.24,1.257,1.257,0,0,1-.579-.141L12.5,20.223l-6.374,3.33A1.262,1.262,0,0,1,5.546,23.694ZM12.5,17.562a1.255,1.255,0,0,1,.578.142l4.712,2.463-.9-5.2a1.252,1.252,0,0,1,.362-1.111l3.8-3.67L15.8,9.424a1.251,1.251,0,0,1-.941-.681L12.5,4,10.141,8.743a1.251,1.251,0,0,1-.941.681l-5.254.765,3.8,3.67A1.252,1.252,0,0,1,8.1,14.97l-.9,5.2L11.92,17.7A1.257,1.257,0,0,1,12.5,17.562Z" transform="translate(0 0)" fill="#222b45"/>
    </clipPath>
  </defs>
  <g id="Group_46" data-name="Group 46" transform="translate(2.501 2.5)">
    <path id="_Icon_小olor-2" data-name=" Icon 小olor" d="M5.546,23.694a1.252,1.252,0,0,1-1.231-1.463L5.53,15.2.379,10.215a1.251,1.251,0,0,1,.69-2.135L8.195,7.045,11.378.638a1.3,1.3,0,0,1,2.24,0L16.8,7.045,23.929,8.08a1.251,1.251,0,0,1,.689,2.135L19.467,15.2l1.215,7.035a1.245,1.245,0,0,1-.5,1.223,1.226,1.226,0,0,1-.735.24,1.257,1.257,0,0,1-.579-.141L12.5,20.223l-6.374,3.33A1.262,1.262,0,0,1,5.546,23.694ZM12.5,17.562a1.255,1.255,0,0,1,.578.142l4.712,2.463-.9-5.2a1.252,1.252,0,0,1,.362-1.111l3.8-3.67L15.8,9.424a1.251,1.251,0,0,1-.941-.681L12.5,4,10.141,8.743a1.251,1.251,0,0,1-.941.681l-5.254.765,3.8,3.67A1.252,1.252,0,0,1,8.1,14.97l-.9,5.2L11.92,17.7A1.257,1.257,0,0,1,12.5,17.562Z" transform="translate(0 0)" fill="#6574cf"/>
  </g>
</svg>
