<svg id="Icon" xmlns="http://www.w3.org/2000/svg" width="24" height="24" viewBox="0 0 24 24">
  <path id="_Icon_Сolor" data-name="🎨 Icon Сolor" d="M16.111,19.988H1.888a1.949,1.949,0,0,1-1.888-2V9.612A2.074,2.074,0,0,1,.575,8.174L8.285.289a1.028,1.028,0,0,1,1.429,0l7.709,7.884A2.076,2.076,0,0,1,18,9.612v8.375A1.95,1.95,0,0,1,16.111,19.988ZM6,9.987h6a1,1,0,0,1,1,1v7H15.99L16,9.612,9,2.42,2.006,9.571,2,17.987H5v-7A1,1,0,0,1,6,9.987Zm1,2v6h4v-6Z" transform="translate(3 2)" fill="#c5cee0"/>
</svg>
