<svg id="_27_Icon_clock" data-name="27) Icon/clock" xmlns="http://www.w3.org/2000/svg" xmlns:xlink="http://www.w3.org/1999/xlink" width="18" height="18" viewBox="0 0 18 18">
  <defs>
    <clipPath id="clip-path">
      <path id="_Icon_小olor" data-name=" Icon 小olor" d="M12,14.25a3,3,0,1,1,0-6,2.949,2.949,0,0,1,1.5.418V7.775A6.149,6.149,0,0,0,7.5,1.5a6.149,6.149,0,0,0-6,6.275v.893A2.95,2.95,0,0,1,3,8.25a3,3,0,1,1-3,3V7.775A7.65,7.65,0,0,1,7.5,0,7.65,7.65,0,0,1,15,7.775V11.25A3,3,0,0,1,12,14.25Zm0-4.5a1.5,1.5,0,1,0,1.5,1.5A1.5,1.5,0,0,0,12,9.75Zm-9,0a1.5,1.5,0,1,0,1.5,1.5A1.5,1.5,0,0,0,3,9.75Z" fill="#222b45"/>
    </clipPath>
  </defs>
  <g id="Group_54" data-name="Group 54" transform="translate(1.5 1.5)">
    <path id="_Icon_小olor-2" data-name=" Icon 小olor" d="M12,14.25a3,3,0,1,1,0-6,2.949,2.949,0,0,1,1.5.418V7.775A6.149,6.149,0,0,0,7.5,1.5a6.149,6.149,0,0,0-6,6.275v.893A2.95,2.95,0,0,1,3,8.25a3,3,0,1,1-3,3V7.775A7.65,7.65,0,0,1,7.5,0,7.65,7.65,0,0,1,15,7.775V11.25A3,3,0,0,1,12,14.25Zm0-4.5a1.5,1.5,0,1,0,1.5,1.5A1.5,1.5,0,0,0,12,9.75Zm-9,0a1.5,1.5,0,1,0,1.5,1.5A1.5,1.5,0,0,0,3,9.75Z" fill="#c5cee0"/>
  </g>
</svg>
