<svg id="_27_Icon_star-fill" data-name="27) Icon/star-fill" xmlns="http://www.w3.org/2000/svg" xmlns:xlink="http://www.w3.org/1999/xlink" width="16" height="16" viewBox="0 0 16 16">
  <defs>
    <clipPath id="clip-path">
      <path id="_Icon_小olor" data-name=" Icon 小olor" d="M10.374,12.637a.668.668,0,0,1-.309-.075l-3.4-1.776-3.4,1.776a.667.667,0,0,1-.965-.7L2.95,8.1.2,5.448A.666.666,0,0,1,.571,4.309l3.8-.552L6.07.34a.694.694,0,0,1,1.194,0l1.7,3.417,3.8.552a.666.666,0,0,1,.368,1.139L10.384,8.1l.647,3.752a.666.666,0,0,1-.657.78" transform="translate(0)" fill="#222b45"/>
    </clipPath>
  </defs>
  <g id="Group_27" data-name="Group 27" transform="translate(1.333 1.364)">
    <path id="_Icon_小olor-2" data-name=" Icon 小olor" d="M10.374,12.637a.668.668,0,0,1-.309-.075l-3.4-1.776-3.4,1.776a.667.667,0,0,1-.965-.7L2.95,8.1.2,5.448A.666.666,0,0,1,.571,4.309l3.8-.552L6.07.34a.694.694,0,0,1,1.194,0l1.7,3.417,3.8.552a.666.666,0,0,1,.368,1.139L10.384,8.1l.647,3.752a.666.666,0,0,1-.657.78" transform="translate(0)" fill="#6574cf"/>
  </g>
</svg>
