<svg id="Icon" xmlns="http://www.w3.org/2000/svg" xmlns:xlink="http://www.w3.org/1999/xlink" width="24" height="24" viewBox="0 0 24 24">
  <defs>
    <clipPath id="clip-path">
      <path id="_Icon_小olor" data-name=" Icon 小olor" d="M1,20A1,1,0,0,1,.02,18.8l.858-4.288a1.1,1.1,0,0,0-.089-.639A9.989,9.989,0,0,1,8.4.124,10.544,10.544,0,0,1,10,0a10.005,10.005,0,0,1,9.874,11.6,10.076,10.076,0,0,1-7.988,8.221A10.227,10.227,0,0,1,10.009,20a9.935,9.935,0,0,1-3.887-.786,1.238,1.238,0,0,0-.476-.1.9.9,0,0,0-.168.015L1.2,19.98A.977.977,0,0,1,1,20Zm4.649-2.892a3.212,3.212,0,0,1,1.254.262A7.922,7.922,0,0,0,10.008,18a8.176,8.176,0,0,0,1.512-.142A8,8,0,0,0,15.656,4.343,7.945,7.945,0,0,0,10,2a8.448,8.448,0,0,0-1.3.1,7.989,7.989,0,0,0-6.075,11,3.086,3.086,0,0,1,.207,1.811l-.563,2.817,2.813-.562A2.874,2.874,0,0,1,5.649,17.107ZM14,11a1,1,0,1,1,1-1A1,1,0,0,1,14,11Zm-4,0a1,1,0,1,1,1-1A1,1,0,0,1,10,11ZM6,11a1,1,0,1,1,1-1A1,1,0,0,1,6,11Z" transform="translate(2 1)" fill="#222b45"/>
    </clipPath>
  </defs>
  <g id="Group_45" data-name="Group 45">
    <path id="_Icon_小olor-2" data-name=" Icon 小olor" d="M1,20A1,1,0,0,1,.02,18.8l.858-4.288a1.1,1.1,0,0,0-.089-.639A9.989,9.989,0,0,1,8.4.124,10.544,10.544,0,0,1,10,0a10.005,10.005,0,0,1,9.874,11.6,10.076,10.076,0,0,1-7.988,8.221A10.227,10.227,0,0,1,10.009,20a9.935,9.935,0,0,1-3.887-.786,1.238,1.238,0,0,0-.476-.1.9.9,0,0,0-.168.015L1.2,19.98A.977.977,0,0,1,1,20Zm4.649-2.892a3.212,3.212,0,0,1,1.254.262A7.922,7.922,0,0,0,10.008,18a8.176,8.176,0,0,0,1.512-.142A8,8,0,0,0,15.656,4.343,7.945,7.945,0,0,0,10,2a8.448,8.448,0,0,0-1.3.1,7.989,7.989,0,0,0-6.075,11,3.086,3.086,0,0,1,.207,1.811l-.563,2.817,2.813-.562A2.874,2.874,0,0,1,5.649,17.107ZM14,11a1,1,0,1,1,1-1A1,1,0,0,1,14,11Zm-4,0a1,1,0,1,1,1-1A1,1,0,0,1,10,11ZM6,11a1,1,0,1,1,1-1A1,1,0,0,1,6,11Z" transform="translate(2 1)" fill="#c5cee0"/>
  </g>
</svg>
