<svg id="business" xmlns="http://www.w3.org/2000/svg" width="38" height="37.989" viewBox="0 0 38 37.989">
  <path id="Path" d="M37.582,18.115l-2.873-2.249,1.8-3.14a1.11,1.11,0,0,0-.69-1.626l-3.571-.98L32.7,6.437a1.1,1.1,0,0,0-1.225-1.225l-3.608.445-.98-3.5a1.11,1.11,0,0,0-1.626-.69l-3.14,1.8L19.868.4a1.141,1.141,0,0,0-1.737,0L15.882,3.274l-3.14-1.8a1.11,1.11,0,0,0-1.626.69l-.98,3.5L6.453,5.212A1.1,1.1,0,0,0,5.228,6.437l.445,3.682-3.5.98a1.11,1.11,0,0,0-.69,1.626l1.8,3.14L.418,18.115a1.112,1.112,0,0,0,0,1.737L3.291,22.1l-1.8,3.14a1.11,1.11,0,0,0,.69,1.626l3.5.98-.445,3.608a1.1,1.1,0,0,0,1.225,1.225l3.682-.445.98,3.571a1.11,1.11,0,0,0,1.626.69l3.14-1.8,2.249,2.873a1.1,1.1,0,0,0,1.737,0l2.249-2.873,3.14,1.8a1.11,1.11,0,0,0,1.626-.69l.98-3.571,3.608.445A1.1,1.1,0,0,0,32.7,31.456l-.445-3.608,3.571-.98a1.11,1.11,0,0,0,.69-1.626l-1.8-3.14,2.873-2.249A1.112,1.112,0,0,0,37.582,18.115Z" fill="#00a5ff"/>
  <path id="Path-2" data-name="Path" d="M18.582,19.852,15.709,22.1l1.8,3.14a1.11,1.11,0,0,1-.69,1.626l-3.571.98.445,3.608a1.1,1.1,0,0,1-1.225,1.225l-3.608-.445-.98,3.571a1.11,1.11,0,0,1-1.626.69l-3.14-1.8L.869,37.565A1.1,1.1,0,0,1,0,37.989V0A1.077,1.077,0,0,1,.869.4L3.118,3.274l3.14-1.8a1.11,1.11,0,0,1,1.626.69l.98,3.5,3.608-.445A1.1,1.1,0,0,1,13.7,6.437l-.445,3.682,3.571.98a1.11,1.11,0,0,1,.69,1.626l-1.8,3.14,2.873,2.249A1.112,1.112,0,0,1,18.582,19.852Z" transform="translate(19)" fill="#08f"/>
  <path id="Path-3" data-name="Path" d="M12.324,24.574A12.327,12.327,0,0,1,0,12.324,12.391,12.391,0,0,1,12.324,0a12.287,12.287,0,0,1,0,24.574Z" transform="translate(6.676 6.66)" fill="#6d7bd1"/>
  <path id="Path-4" data-name="Path" d="M12.25,12.324A12.327,12.327,0,0,0,0,0V24.574A12.264,12.264,0,0,0,12.25,12.324Z" transform="translate(19 6.66)" fill="#5a68be"/>
  <path id="Path-5" data-name="Path" d="M10.963,1.742,5.573,9.827,2.054,15.106A1.153,1.153,0,0,1,.5,15.417a1.141,1.141,0,0,1-.312-1.559l5.39-8.085L9.092.5A1.141,1.141,0,0,1,10.651.183,1.14,1.14,0,0,1,10.963,1.742Z" transform="translate(13.427 11.183)" fill="#e1e4fb"/>
  <g id="Group" transform="translate(19 11.127)">
    <path id="Path-6" data-name="Path" d="M5.39,1.742,0,9.827V5.774L3.519.5A1.141,1.141,0,0,1,5.078.183,1.14,1.14,0,0,1,5.39,1.742Z" transform="translate(0 0.056)" fill="#c5c9f7"/>
    <path id="Shape" d="M0,3.341A3.341,3.341,0,1,1,3.341,6.682,3.344,3.344,0,0,1,0,3.341Z" transform="translate(1.113 8.97)" fill="#c5c9f7"/>
  </g>
  <path id="Shape-2" data-name="Shape" d="M0,3.341A3.341,3.341,0,1,1,3.341,6.682,3.344,3.344,0,0,1,0,3.341Z" transform="translate(11.204 11.188)" fill="#e1e4fb"/>
</svg>
