<svg id="_27_Icon_heart" data-name="27) Icon/heart" xmlns="http://www.w3.org/2000/svg" xmlns:xlink="http://www.w3.org/1999/xlink" width="24" height="24" viewBox="0 0 24 24">
  <defs>
    <clipPath id="clip-path">
      <path id="_Icon_小olor" data-name=" Icon 小olor" d="M16,18a3,3,0,0,1-3-3,1.746,1.746,0,0,1,.022-.238c0-.033.009-.065.013-.1L5.1,11.139a3,3,0,1,1,0-4.279l7.934-3.525c0-.033-.008-.065-.013-.1A1.746,1.746,0,0,1,13,3a3.01,3.01,0,1,1,.9,2.139L5.966,8.665c0,.032.008.064.013.1a1.321,1.321,0,0,1,0,.476c0,.032-.009.065-.013.1L13.9,12.861A3,3,0,1,1,16,18Zm0-4a1,1,0,1,0,1,1A1,1,0,0,0,16,14ZM3,8A1,1,0,1,0,4,9,1,1,0,0,0,3,8ZM16,2a1,1,0,1,0,1,1A1,1,0,0,0,16,2Z" transform="translate(2 3)" fill="#222b45"/>
    </clipPath>
  </defs>
  <g id="Group_8" data-name="Group 8">
    <path id="_Icon_小olor-2" data-name=" Icon 小olor" d="M16,18a3,3,0,0,1-3-3,1.746,1.746,0,0,1,.022-.238c0-.033.009-.065.013-.1L5.1,11.139a3,3,0,1,1,0-4.279l7.934-3.525c0-.033-.008-.065-.013-.1A1.746,1.746,0,0,1,13,3a3.01,3.01,0,1,1,.9,2.139L5.966,8.665c0,.032.008.064.013.1a1.321,1.321,0,0,1,0,.476c0,.032-.009.065-.013.1L13.9,12.861A3,3,0,1,1,16,18Zm0-4a1,1,0,1,0,1,1A1,1,0,0,0,16,14ZM3,8A1,1,0,1,0,4,9,1,1,0,0,0,3,8ZM16,2a1,1,0,1,0,1,1A1,1,0,0,0,16,2Z" transform="translate(2 3)" fill="#8f9bb3"/>
  </g>
</svg>
