<svg id="_27_Icon_arrow-ios-right" data-name="27) Icon/arrow-ios-right" xmlns="http://www.w3.org/2000/svg" xmlns:xlink="http://www.w3.org/1999/xlink" width="20" height="20" viewBox="0 0 20 20">
  <defs>
    <clipPath id="clip-path">
      <path id="_Icon_小olor" data-name=" Icon 小olor" d="M.833,11.667A.833.833,0,0,1,.193,10.3l3.73-4.476L.327,1.356A.834.834,0,0,1,1.626.311l4.023,5A.834.834,0,0,1,5.64,6.367l-4.167,5a.833.833,0,0,1-.641.3" transform="translate(0 0)" fill="#222b45"/>
    </clipPath>
  </defs>
  <g id="Group_37" data-name="Group 37" transform="translate(7.5 4.167)">
    <path id="_Icon_小olor-2" data-name=" Icon 小olor" d="M.833,11.667A.833.833,0,0,1,.193,10.3l3.73-4.476L.327,1.356A.834.834,0,0,1,1.626.311l4.023,5A.834.834,0,0,1,5.64,6.367l-4.167,5a.833.833,0,0,1-.641.3" transform="translate(0 0)" fill="#8f9bb3"/>
  </g>
</svg>
