<svg id="_27_Icon_funnel" data-name="27) Icon/funnel" xmlns="http://www.w3.org/2000/svg" xmlns:xlink="http://www.w3.org/1999/xlink" width="24" height="24" viewBox="0 0 24 24">
  <defs>
    <clipPath id="clip-path">
      <path id="_Icon_小olor" data-name=" Icon 小olor" d="M9,20a3.845,3.845,0,0,1-4-3.659V16H1.637A1.636,1.636,0,0,1,.48,13.207l1.8-1.8V6.726A6.731,6.731,0,0,1,9.9.059a6.858,6.858,0,0,1,5.82,6.878V11.4l1.8,1.8A1.637,1.637,0,0,1,16.363,16H13v.34A3.846,3.846,0,0,1,9,20ZM7,16v.34A1.879,1.879,0,0,0,9,18a1.88,1.88,0,0,0,2-1.66V16ZM8.993,2A4.629,4.629,0,0,0,5.9,3.17a4.731,4.731,0,0,0-1.62,3.556V11.4A1.987,1.987,0,0,1,3.7,12.817L2.516,14H15.486l-1.181-1.183a1.985,1.985,0,0,1-.585-1.413V6.936a4.854,4.854,0,0,0-4.082-4.9A4.97,4.97,0,0,0,8.993,2Z" transform="translate(2.999 2.001)" fill="#222b45"/>
    </clipPath>
  </defs>
  <g id="Group_4" data-name="Group 4">
    <path id="_Icon_小olor-2" data-name=" Icon 小olor" d="M9,20a3.845,3.845,0,0,1-4-3.659V16H1.637A1.636,1.636,0,0,1,.48,13.207l1.8-1.8V6.726A6.731,6.731,0,0,1,9.9.059a6.858,6.858,0,0,1,5.82,6.878V11.4l1.8,1.8A1.637,1.637,0,0,1,16.363,16H13v.34A3.846,3.846,0,0,1,9,20ZM7,16v.34A1.879,1.879,0,0,0,9,18a1.88,1.88,0,0,0,2-1.66V16ZM8.993,2A4.629,4.629,0,0,0,5.9,3.17a4.731,4.731,0,0,0-1.62,3.556V11.4A1.987,1.987,0,0,1,3.7,12.817L2.516,14H15.486l-1.181-1.183a1.985,1.985,0,0,1-.585-1.413V6.936a4.854,4.854,0,0,0-4.082-4.9A4.97,4.97,0,0,0,8.993,2Z" transform="translate(2.999 2.001)" fill="#8f9bb3"/>
  </g>
</svg>
