<svg id="icon_2_doctor_1" data-name="icon/2/doctor 1" xmlns="http://www.w3.org/2000/svg" width="32" height="32" viewBox="0 0 32 32">
  <rect id="Rectangle" width="32" height="32" fill="#f9f9f9" opacity="0"/>
  <path id="Shape" d="M23.373,30.4a6.878,6.878,0,0,1-4.687-1.829l-.2-.189L15.2,25.094l-3.288,3.289A6.859,6.859,0,0,1,7.028,30.4,7,7,0,0,1,2.26,28.529l-.2-.191A6.993,6.993,0,0,1,0,23.533a6.868,6.868,0,0,1,1.827-4.847l.189-.2L5.306,15.2,2.018,11.911A6.865,6.865,0,0,1,0,7.122,6.987,6.987,0,0,1,1.872,2.26l.19-.2A6.979,6.979,0,0,1,7.028,0a6.879,6.879,0,0,1,4.687,1.829l.2.189L15.2,5.306l3.29-3.288A6.856,6.856,0,0,1,23.372,0,7.041,7.041,0,0,1,30.4,6.868a6.867,6.867,0,0,1-1.827,4.847l-.189.2L25.094,15.2l3.289,3.29A6.865,6.865,0,0,1,30.4,23.278a6.988,6.988,0,0,1-1.871,4.862l-.191.2A6.978,6.978,0,0,1,23.373,30.4Zm.763-14.243h0l-7.979,7.979,3.29,3.289a5.514,5.514,0,0,0,3.926,1.621,5.647,5.647,0,0,0,3.815-1.482l.192-.184a5.6,5.6,0,0,0,.226-7.744l-.181-.19-3.289-3.29Zm-17.872,0h0L2.975,19.447A5.512,5.512,0,0,0,1.354,23.4a5.687,5.687,0,0,0,5.673,5.643,5.534,5.534,0,0,0,3.736-1.44l.19-.181,3.289-3.289L6.264,16.158ZM15.2,7.221h0L7.221,15.2l7.978,7.98,7.98-7.98L15.2,7.221Zm8.173-5.868h0a5.534,5.534,0,0,0-3.735,1.44l-.19.181L16.158,6.264l7.978,7.978,3.289-3.289a5.6,5.6,0,0,0,.139-7.741L27.38,3.02a5.634,5.634,0,0,0-4.008-1.666Zm-16.345,0a5.658,5.658,0,0,0-4.233,9.409l.181.19,3.288,3.289,7.98-7.98L10.953,2.975A5.514,5.514,0,0,0,7.027,1.354ZM15.285,20.83a.789.789,0,1,1,.568-.241A.786.786,0,0,1,15.285,20.83Zm-2.462-2.378a.789.789,0,1,1,.568-.241A.785.785,0,0,1,12.822,18.452Zm4.8-.047a.79.79,0,1,1,.568-.241A.786.786,0,0,1,17.626,18.406ZM10.36,16.074a.79.79,0,1,1,.569-.241A.785.785,0,0,1,10.36,16.074Zm4.8-.046a.79.79,0,1,1,.568-.241A.786.786,0,0,1,15.164,16.028Zm4.876-.122a.79.79,0,1,1,.568-.241A.785.785,0,0,1,20.04,15.906ZM12.7,13.65a.789.789,0,1,1,.568-.241A.785.785,0,0,1,12.7,13.65Zm4.876-.122a.79.79,0,1,1,.568-.241A.786.786,0,0,1,17.577,13.528Zm-2.462-2.378a.789.789,0,1,1,.568-.241A.785.785,0,0,1,15.115,11.151Z" transform="translate(0.8 0.8)" fill="#ff4e32"/>
</svg>
