<svg id="_27_Icon_pin" data-name="27) Icon/pin" xmlns="http://www.w3.org/2000/svg" xmlns:xlink="http://www.w3.org/1999/xlink" width="18" height="18" viewBox="0 0 18 18">
  <defs>
    <clipPath id="clip-path">
      <path id="_Icon_小olor" data-name=" Icon 小olor" d="M5.333,16.5a.749.749,0,0,1-.745-.83l.576-5.32H.75A.75.75,0,0,1,.127,9.183L6.043.334a.75.75,0,0,1,1.369.5L6.836,6.15H11.25a.75.75,0,0,1,.623,1.167l-5.917,8.85A.747.747,0,0,1,5.333,16.5ZM5.591,3.708,2.153,8.85H6a.75.75,0,0,1,.745.83l-.337,3.112L9.847,7.65H6a.75.75,0,0,1-.746-.83l.337-3.112Z" transform="translate(0 0)" fill="#222b45"/>
    </clipPath>
  </defs>
  <g id="Group_55" data-name="Group 55" transform="translate(3 0.75)">
    <path id="_Icon_小olor-2" data-name=" Icon 小olor" d="M5.333,16.5a.749.749,0,0,1-.745-.83l.576-5.32H.75A.75.75,0,0,1,.127,9.183L6.043.334a.75.75,0,0,1,1.369.5L6.836,6.15H11.25a.75.75,0,0,1,.623,1.167l-5.917,8.85A.747.747,0,0,1,5.333,16.5ZM5.591,3.708,2.153,8.85H6a.75.75,0,0,1,.745.83l-.337,3.112L9.847,7.65H6a.75.75,0,0,1-.746-.83l.337-3.112Z" transform="translate(0 0)" fill="#8f9bb3"/>
  </g>
</svg>
