<svg xmlns="http://www.w3.org/2000/svg" width="27.618" height="24.84" viewBox="0 0 27.618 24.84">
  <path id="pulse-svgrepo-com" d="M19.338,2.16a8.294,8.294,0,0,0-5.529,2.084A8.294,8.294,0,0,0,8.28,2.16,8.226,8.226,0,0,0,0,10.311c0,2.841,1.567,6.228,4.411,9.536a28.178,28.178,0,0,0,9.21,7.112.454.454,0,0,0,.376,0,28.176,28.176,0,0,0,9.21-7.112c2.845-3.308,4.411-6.694,4.411-9.536A8.226,8.226,0,0,0,19.338,2.16ZM8.28,3.041a7.4,7.4,0,0,1,5.213,2.121.452.452,0,0,0,.632,0,7.41,7.41,0,0,1,12.6,5.149,9.281,9.281,0,0,1-.6,3.123H20.49a.446.446,0,0,0-.437.345l-.53,2.349-1.461-6.112a.446.446,0,0,0-.432-.34h0a.446.446,0,0,0-.434.334l-.869,3.425H10.946a.446.446,0,0,0-.437.345l-.53,2.349L8.518,10.016a.446.446,0,0,0-.432-.34h0a.446.446,0,0,0-.434.334l-.87,3.425H1.5a9.281,9.281,0,0,1-.6-3.123A7.337,7.337,0,0,1,8.28,3.041ZM22.524,19.278a27.809,27.809,0,0,1-8.715,6.8,27.81,27.81,0,0,1-8.715-6.8,20.512,20.512,0,0,1-3.245-4.962H7.128a.446.446,0,0,0,.434-.334l.507-2L9.556,18.2a.446.446,0,0,0,.435.34h0a.446.446,0,0,0,.434-.345l.877-3.883h5.368a.446.446,0,0,0,.434-.334l.507-2L19.1,18.2a.446.446,0,0,0,.435.34h0a.446.446,0,0,0,.434-.345l.877-3.883h4.921A20.512,20.512,0,0,1,22.524,19.278Z" transform="translate(0 -2.16)" fill="#ff4e32"/>
</svg>
