<svg id="login-svgrepo-com" xmlns="http://www.w3.org/2000/svg" width="27.163" height="25" viewBox="0 0 27.163 25">
  <g id="Group_94" data-name="Group 94" transform="translate(0 5.15)">
    <g id="Group_93" data-name="Group 93">
      <path id="Path_8" data-name="Path 8" d="M26.848,20.25,20.7,13.966a1.05,1.05,0,0,0-1.5,1.468l4.418,4.516H1.05a1.05,1.05,0,1,0,0,2.1H23.617L19.2,26.566a1.05,1.05,0,0,0,1.5,1.468l6.163-6.3A1.05,1.05,0,0,0,26.848,20.25Z" transform="translate(0 -13.65)" fill="#6574cf"/>
    </g>
  </g>
  <g id="Group_96" data-name="Group 96" transform="translate(13.682)">
    <g id="Group_95" data-name="Group 95">
      <path id="Path_9" data-name="Path 9" d="M24.557,0H13.043C12.8,0,12.6.28,12.6.625v8.75h.886V1.25H24.114v22.5H13.486V15.625H12.6v8.75c0,.345.2.625.443.625H24.557c.244,0,.443-.28.443-.625V.625C25,.28,24.8,0,24.557,0Z" transform="translate(-12.6)" fill="#6574cf"/>
    </g>
  </g>
</svg>
