<svg id="_27_Icon_clock" data-name="27) Icon/clock" xmlns="http://www.w3.org/2000/svg" xmlns:xlink="http://www.w3.org/1999/xlink" width="18" height="18" viewBox="0 0 18 18">
  <defs>
    <clipPath id="clip-path">
      <path id="_Icon_小olor" data-name=" Icon 小olor" d="M7.5,15A7.5,7.5,0,1,1,15,7.5,7.508,7.508,0,0,1,7.5,15Zm0-13.5a6,6,0,1,0,6,6A6.007,6.007,0,0,0,7.5,1.5Zm3,6.75h-3a.751.751,0,0,1-.75-.75v-3a.75.75,0,1,1,1.5,0V6.75H10.5a.75.75,0,1,1,0,1.5Z" fill="#222b45"/>
    </clipPath>
  </defs>
  <g id="Group_24" data-name="Group 24" transform="translate(1.5 1.5)">
    <path id="_Icon_小olor-2" data-name=" Icon 小olor" d="M7.5,15A7.5,7.5,0,1,1,15,7.5,7.508,7.508,0,0,1,7.5,15Zm0-13.5a6,6,0,1,0,6,6A6.007,6.007,0,0,0,7.5,1.5Zm3,6.75h-3a.751.751,0,0,1-.75-.75v-3a.75.75,0,1,1,1.5,0V6.75H10.5a.75.75,0,1,1,0,1.5Z" fill="#c5cee0"/>
  </g>
</svg>
