<svg id="_27_Icon_star-fill" data-name="27) Icon/star-fill" xmlns="http://www.w3.org/2000/svg" xmlns:xlink="http://www.w3.org/1999/xlink" width="20" height="20" viewBox="0 0 20 20">
  <defs>
    <clipPath id="clip-path">
      <path id="_Icon_小olor" data-name=" Icon 小olor" d="M12.968,15.8a.835.835,0,0,1-.386-.094l-4.249-2.22L4.084,15.7a.834.834,0,0,1-1.207-.881l.809-4.69L.254,6.81a.833.833,0,0,1,.46-1.423l4.75-.69L7.587.425a.868.868,0,0,1,1.492,0L11.2,4.7l4.75.69a.833.833,0,0,1,.46,1.423l-3.433,3.321.809,4.69a.833.833,0,0,1-.821.975" transform="translate(0 0)" fill="#222b45"/>
    </clipPath>
  </defs>
  <g id="Group_27" data-name="Group 27" transform="translate(1.667 1.705)">
    <path id="_Icon_小olor-2" data-name=" Icon 小olor" d="M12.968,15.8a.835.835,0,0,1-.386-.094l-4.249-2.22L4.084,15.7a.834.834,0,0,1-1.207-.881l.809-4.69L.254,6.81a.833.833,0,0,1,.46-1.423l4.75-.69L7.587.425a.868.868,0,0,1,1.492,0L11.2,4.7l4.75.69a.833.833,0,0,1,.46,1.423l-3.433,3.321.809,4.69a.833.833,0,0,1-.821.975" transform="translate(0 0)" fill="#c5cee0"/>
  </g>
</svg>
