<svg id="_27_Icon_heart" data-name="27) Icon/heart" xmlns="http://www.w3.org/2000/svg" xmlns:xlink="http://www.w3.org/1999/xlink" width="24" height="24" viewBox="0 0 24 24">
  <defs>
    <clipPath id="clip-path">
      <path id="_Icon_小olor" data-name=" Icon 小olor" d="M10,17a1,1,0,0,1-.707-.294L1.527,8.926a5.243,5.243,0,0,1,0-7.4,5.233,5.233,0,0,1,7.39,0L10,2.614l1.085-1.085a5.232,5.232,0,0,1,7.39,0,5.244,5.244,0,0,1,0,7.4L10.71,16.707A1,1,0,0,1,10,17ZM5.222,2a3.2,3.2,0,0,0-2.28.941,3.241,3.241,0,0,0,0,4.573L10,14.585l7.061-7.071A3.229,3.229,0,0,0,12.5,2.941L10.71,4.736a1.027,1.027,0,0,1-1.416,0L7.5,2.94A3.2,3.2,0,0,0,5.222,2Z" transform="translate(1.998 4)" fill="#222b45"/>
    </clipPath>
  </defs>
  <g id="Group_44" data-name="Group 44">
    <path id="_Icon_小olor-2" data-name=" Icon 小olor" d="M10,17a1,1,0,0,1-.707-.294L1.527,8.926a5.243,5.243,0,0,1,0-7.4,5.233,5.233,0,0,1,7.39,0L10,2.614l1.085-1.085a5.232,5.232,0,0,1,7.39,0,5.244,5.244,0,0,1,0,7.4L10.71,16.707A1,1,0,0,1,10,17ZM5.222,2a3.2,3.2,0,0,0-2.28.941,3.241,3.241,0,0,0,0,4.573L10,14.585l7.061-7.071A3.229,3.229,0,0,0,12.5,2.941L10.71,4.736a1.027,1.027,0,0,1-1.416,0L7.5,2.94A3.2,3.2,0,0,0,5.222,2Z" transform="translate(1.998 4)" fill="#8f9bb3"/>
  </g>
</svg>
