<svg id="Component_251_1" data-name="Component 251 – 1" xmlns="http://www.w3.org/2000/svg" width="23.745" height="29.824" viewBox="0 0 23.745 29.824">
  <path id="Path_5" data-name="Path 5" d="M18.545.176a.609.609,0,0,0-.856,0C17.221.687,6.244,12.758,6.244,18.723c0,6.121,5.326,11.1,11.873,11.1s11.873-4.979,11.873-11.1C29.989,12.758,19.012.687,18.545.176Zm-.428,28.582c-5.923,0-10.742-4.5-10.742-10.035,0-4.94,8.692-15.057,10.742-17.373,2.049,2.316,10.742,12.433,10.742,17.373C28.859,24.256,24.04,28.758,18.117,28.758Z" transform="translate(-6.244 0)" fill="#6574cf"/>
  <path id="Path_6" data-name="Path 6" d="M24.25,22.313H20.606v3.644H16.962V29.6h3.644v3.644H24.25V29.6h3.644V25.957H24.25Zm2.429,4.859v1.215H23.035V32.03H21.821V28.386H18.177V27.172h3.644V23.528h1.215v3.644Z" transform="translate(-10.555 -9.887)" fill="#6574cf"/>
  <path id="Path_7" data-name="Path 7" d="M29.239,11.419a.607.607,0,0,0-1.011.674l3.644,5.466a.607.607,0,1,0,1.011-.674Z" transform="translate(-14.517 -4.726)" fill="#6574cf"/>
</svg>
