<svg id="Combined_Shape" data-name="Combined Shape" xmlns="http://www.w3.org/2000/svg" width="30.277" height="31.918" viewBox="0 0 30.277 31.918">
  <path id="Combined_Shape-2" data-name="Combined Shape" d="M0,31.282V.635a.635.635,0,1,1,1.27,0V8.4H3.6V5.039A2.322,2.322,0,0,1,5.928,2.73H27.948a2.322,2.322,0,0,1,2.329,2.309V24.359a2.322,2.322,0,0,1-2.329,2.309H5.928A2.322,2.322,0,0,1,3.6,24.359v-3.78H1.27v10.7a.635.635,0,1,1-1.27,0ZM4.87,5.039V24.359a1.055,1.055,0,0,0,1.058,1.049H27.948a1.055,1.055,0,0,0,1.058-1.049V5.039A1.055,1.055,0,0,0,27.948,3.99H5.928A1.055,1.055,0,0,0,4.87,5.039ZM1.27,19.319H3.6V9.659H1.27Zm8.636-4.026a5.019,5.019,0,0,1-.544-.664H9.316V14.56a5.139,5.139,0,0,1,.59-6.367,4.8,4.8,0,0,1,6.922,0l.247.253.246-.253a4.794,4.794,0,0,1,6.631-.276l.159.145.132.131a5.13,5.13,0,0,1,.136,6.954l-.136.145L17.073,22.68Zm7.169,5.569,6.05-6.233H19.05l-1.171,2.711-2.695-4.453-1.317,1.742H11.023Zm.615-6.284.523-1.21h5.843a3.871,3.871,0,0,0,.358-1.627,3.778,3.778,0,0,0-1.06-2.648l-.114-.113a3.537,3.537,0,0,0-5.021.1l-1.145,1.179L15.929,9.085a3.547,3.547,0,0,0-5.126,0,3.793,3.793,0,0,0-1.067,2.659,3.855,3.855,0,0,0,.356,1.625h3.142l2.07-2.737Z" fill="#6574cf"/>
</svg>
