<svg id="_27_Icon_calendar" data-name="27) Icon/calendar" xmlns="http://www.w3.org/2000/svg" xmlns:xlink="http://www.w3.org/1999/xlink" width="22" height="22" viewBox="0 0 22 22">
  <defs>
    <clipPath id="clip-path">
      <path id="_Icon_小olor" data-name=" Icon 小olor" d="M.918,18.332a.916.916,0,0,1-.9-1.1L.8,13.305a1.009,1.009,0,0,0-.082-.586A9.157,9.157,0,0,1,7.7.114,9.665,9.665,0,0,1,9.169,0a9.172,9.172,0,0,1,9.051,10.635A9.236,9.236,0,0,1,10.9,18.17a9.375,9.375,0,0,1-1.721.161,9.107,9.107,0,0,1-3.563-.721,1.134,1.134,0,0,0-.436-.095.828.828,0,0,0-.154.014L1.1,18.315A.9.9,0,0,1,.918,18.332Zm4.261-2.651a2.944,2.944,0,0,1,1.149.24,7.262,7.262,0,0,0,2.846.576,7.494,7.494,0,0,0,1.386-.13A7.332,7.332,0,0,0,14.352,3.98,7.283,7.283,0,0,0,9.168,1.834a7.744,7.744,0,0,0-1.187.093A7.323,7.323,0,0,0,2.412,12.005a2.828,2.828,0,0,1,.19,1.66l-.516,2.582,2.578-.516A2.635,2.635,0,0,1,5.179,15.681Zm7.655-5.6a.917.917,0,1,1,.917-.917A.918.918,0,0,1,12.834,10.082Zm-3.667,0a.917.917,0,1,1,.917-.917A.918.918,0,0,1,9.167,10.082Zm-3.666,0a.917.917,0,1,1,.917-.917A.918.918,0,0,1,5.5,10.082Z" transform="translate(0)" fill="#222b45"/>
    </clipPath>
  </defs>
  <g id="Group_45" data-name="Group 45" transform="translate(1.833 0.917)">
    <path id="_Icon_小olor-2" data-name=" Icon 小olor" d="M.918,18.332a.916.916,0,0,1-.9-1.1L.8,13.305a1.009,1.009,0,0,0-.082-.586A9.157,9.157,0,0,1,7.7.114,9.665,9.665,0,0,1,9.169,0a9.172,9.172,0,0,1,9.051,10.635A9.236,9.236,0,0,1,10.9,18.17a9.375,9.375,0,0,1-1.721.161,9.107,9.107,0,0,1-3.563-.721,1.134,1.134,0,0,0-.436-.095.828.828,0,0,0-.154.014L1.1,18.315A.9.9,0,0,1,.918,18.332Zm4.261-2.651a2.944,2.944,0,0,1,1.149.24,7.262,7.262,0,0,0,2.846.576,7.494,7.494,0,0,0,1.386-.13A7.332,7.332,0,0,0,14.352,3.98,7.283,7.283,0,0,0,9.168,1.834a7.744,7.744,0,0,0-1.187.093A7.323,7.323,0,0,0,2.412,12.005a2.828,2.828,0,0,1,.19,1.66l-.516,2.582,2.578-.516A2.635,2.635,0,0,1,5.179,15.681Zm7.655-5.6a.917.917,0,1,1,.917-.917A.918.918,0,0,1,12.834,10.082Zm-3.667,0a.917.917,0,1,1,.917-.917A.918.918,0,0,1,9.167,10.082Zm-3.666,0a.917.917,0,1,1,.917-.917A.918.918,0,0,1,5.5,10.082Z" transform="translate(0)" fill="#8f9bb3"/>
  </g>
</svg>
