<svg id="_27_Icon_funnel" data-name="27) Icon/funnel" xmlns="http://www.w3.org/2000/svg" xmlns:xlink="http://www.w3.org/1999/xlink" width="24" height="24" viewBox="0 0 24 24">
  <defs>
    <clipPath id="clip-path">
      <path id="_Icon_小olor" data-name=" Icon 小olor" d="M10.943,20H9.051a1.678,1.678,0,0,1-1.677-1.676V17.233a.334.334,0,0,0-.227-.293.546.546,0,0,0-.2-.045.277.277,0,0,0-.2.077l-.77.77a1.683,1.683,0,0,1-2.377,0L2.257,16.4a1.681,1.681,0,0,1,0-2.38l.768-.765a.334.334,0,0,0,.048-.37.36.36,0,0,0-.309-.264H1.683A1.684,1.684,0,0,1,0,10.943V9.051A1.679,1.679,0,0,1,1.677,7.375h1.09a.335.335,0,0,0,.293-.228.353.353,0,0,0-.032-.4l-.77-.77a1.684,1.684,0,0,1,0-2.377L3.6,2.257a1.681,1.681,0,0,1,2.379,0l.765.769a.285.285,0,0,0,.207.082.427.427,0,0,0,.163-.034.363.363,0,0,0,.263-.309V1.683A1.685,1.685,0,0,1,9.058,0H10.95a1.678,1.678,0,0,1,1.676,1.676V2.767a.334.334,0,0,0,.227.293.538.538,0,0,0,.2.046.272.272,0,0,0,.2-.079l.77-.77a1.683,1.683,0,0,1,2.377,0L17.745,3.6a1.681,1.681,0,0,1,0,2.377l-.769.766a.332.332,0,0,0-.047.37.358.358,0,0,0,.308.264h1.084A1.684,1.684,0,0,1,20,9.057v1.893a1.678,1.678,0,0,1-1.676,1.676h-1.09a.335.335,0,0,0-.293.228l-.009.022,0,.011a.338.338,0,0,0,.046.37l.771.769a1.687,1.687,0,0,1,0,2.378L16.4,17.743a1.682,1.682,0,0,1-2.38,0l-.765-.769a.284.284,0,0,0-.207-.081.424.424,0,0,0-.164.034.36.36,0,0,0-.263.308v1.084A1.685,1.685,0,0,1,10.943,20ZM6.952,14.892a2.41,2.41,0,0,1,.934.189,2.347,2.347,0,0,1,1.489,2.152V18h1.251v-.767a2.327,2.327,0,0,1,1.463-2.142,2.5,2.5,0,0,1,.966-.2,2.268,2.268,0,0,1,1.622.667l.539.541.887-.887-.545-.545a2.323,2.323,0,0,1-.477-2.557l.012-.03a2.322,2.322,0,0,1,2.14-1.459H18V9.375h-.766a2.325,2.325,0,0,1-2.142-1.464,2.349,2.349,0,0,1,.47-2.588l.541-.538L15.216,3.9l-.545.545a2.276,2.276,0,0,1-1.622.666,2.414,2.414,0,0,1-.934-.189,2.348,2.348,0,0,1-1.489-2.153V2H9.375v.767A2.325,2.325,0,0,1,7.911,4.909a2.487,2.487,0,0,1-.965.2,2.266,2.266,0,0,1-1.621-.668L4.785,3.9,3.9,4.785l.545.544a2.329,2.329,0,0,1,.477,2.557A2.346,2.346,0,0,1,2.767,9.375H2v1.25h.767a2.322,2.322,0,0,1,2.142,1.463,2.349,2.349,0,0,1-.47,2.588l-.541.539.887.887.544-.545A2.276,2.276,0,0,1,6.952,14.892ZM10,13.5A3.5,3.5,0,1,1,13.5,10,3.5,3.5,0,0,1,10,13.5Zm0-5A1.5,1.5,0,1,0,11.5,10,1.5,1.5,0,0,0,10,8.5Z" transform="translate(2 2)" fill="#222b45"/>
    </clipPath>
  </defs>
  <g id="Group_43" data-name="Group 43">
    <path id="_Icon_小olor-2" data-name=" Icon 小olor" d="M10.943,20H9.051a1.678,1.678,0,0,1-1.677-1.676V17.233a.334.334,0,0,0-.227-.293.546.546,0,0,0-.2-.045.277.277,0,0,0-.2.077l-.77.77a1.683,1.683,0,0,1-2.377,0L2.257,16.4a1.681,1.681,0,0,1,0-2.38l.768-.765a.334.334,0,0,0,.048-.37.36.36,0,0,0-.309-.264H1.683A1.684,1.684,0,0,1,0,10.943V9.051A1.679,1.679,0,0,1,1.677,7.375h1.09a.335.335,0,0,0,.293-.228.353.353,0,0,0-.032-.4l-.77-.77a1.684,1.684,0,0,1,0-2.377L3.6,2.257a1.681,1.681,0,0,1,2.379,0l.765.769a.285.285,0,0,0,.207.082.427.427,0,0,0,.163-.034.363.363,0,0,0,.263-.309V1.683A1.685,1.685,0,0,1,9.058,0H10.95a1.678,1.678,0,0,1,1.676,1.676V2.767a.334.334,0,0,0,.227.293.538.538,0,0,0,.2.046.272.272,0,0,0,.2-.079l.77-.77a1.683,1.683,0,0,1,2.377,0L17.745,3.6a1.681,1.681,0,0,1,0,2.377l-.769.766a.332.332,0,0,0-.047.37.358.358,0,0,0,.308.264h1.084A1.684,1.684,0,0,1,20,9.057v1.893a1.678,1.678,0,0,1-1.676,1.676h-1.09a.335.335,0,0,0-.293.228l-.009.022,0,.011a.338.338,0,0,0,.046.37l.771.769a1.687,1.687,0,0,1,0,2.378L16.4,17.743a1.682,1.682,0,0,1-2.38,0l-.765-.769a.284.284,0,0,0-.207-.081.424.424,0,0,0-.164.034.36.36,0,0,0-.263.308v1.084A1.685,1.685,0,0,1,10.943,20ZM6.952,14.892a2.41,2.41,0,0,1,.934.189,2.347,2.347,0,0,1,1.489,2.152V18h1.251v-.767a2.327,2.327,0,0,1,1.463-2.142,2.5,2.5,0,0,1,.966-.2,2.268,2.268,0,0,1,1.622.667l.539.541.887-.887-.545-.545a2.323,2.323,0,0,1-.477-2.557l.012-.03a2.322,2.322,0,0,1,2.14-1.459H18V9.375h-.766a2.325,2.325,0,0,1-2.142-1.464,2.349,2.349,0,0,1,.47-2.588l.541-.538L15.216,3.9l-.545.545a2.276,2.276,0,0,1-1.622.666,2.414,2.414,0,0,1-.934-.189,2.348,2.348,0,0,1-1.489-2.153V2H9.375v.767A2.325,2.325,0,0,1,7.911,4.909a2.487,2.487,0,0,1-.965.2,2.266,2.266,0,0,1-1.621-.668L4.785,3.9,3.9,4.785l.545.544a2.329,2.329,0,0,1,.477,2.557A2.346,2.346,0,0,1,2.767,9.375H2v1.25h.767a2.322,2.322,0,0,1,2.142,1.463,2.349,2.349,0,0,1-.47,2.588l-.541.539.887.887.544-.545A2.276,2.276,0,0,1,6.952,14.892ZM10,13.5A3.5,3.5,0,1,1,13.5,10,3.5,3.5,0,0,1,10,13.5Zm0-5A1.5,1.5,0,1,0,11.5,10,1.5,1.5,0,0,0,10,8.5Z" transform="translate(2 2)" fill="#fff"/>
  </g>
</svg>
