<svg id="Icon" xmlns="http://www.w3.org/2000/svg" width="24" height="24" viewBox="0 0 24 24">
  <path id="_Icon_Сolor" data-name="🎨 Icon Сolor" d="M11,19a6,6,0,0,1-6-6V11.917A6,6,0,0,1,0,6V1A1,1,0,0,1,1,0H3a1,1,0,0,1,.117,1.993L3,2H2V6l.007.235a4,4,0,0,0,7.987,0L10,6V2H9A1,1,0,0,1,8.883.006L9,0h2a1,1,0,0,1,1,1V6a6,6,0,0,1-5,5.916V13a4,4,0,0,0,4,4h1a4,4,0,0,0,4-4v-.171a3,3,0,1,1,2,0V13a6,6,0,0,1-6,6Zm6-8a1,1,0,1,0-.707-.293A1,1,0,0,0,17,11Z" transform="translate(2 3)" fill="#6574cf"/>
</svg>
